<svg width="24" height="23" viewBox="0 0 24 23" fill="none" xmlns="http://www.w3.org/2000/svg">
<path d="M17.5464 14.8435C17.2937 14.6009 16.9571 14.4654 16.6068 14.4654H16.2149C16.1166 14.4654 16.0221 14.4275 15.9512 14.3595V14.3595C15.8025 14.217 15.7947 13.9827 15.9258 13.824C17.1255 12.3725 17.8388 10.5412 17.8388 8.54774C17.8388 3.82676 13.8456 0 8.91938 0C3.99314 0 0 3.82676 0 8.54774C0 13.2687 3.99314 17.0955 8.91938 17.0955C11.0064 17.0955 12.923 16.4074 14.44 15.2564C14.6004 15.1347 14.8265 15.1424 14.9719 15.2818V15.2818C15.0501 15.3567 15.0943 15.4603 15.0943 15.5687V15.9182C15.0943 16.2502 15.2301 16.5678 15.47 16.7972L20.9757 22.0629C21.5235 22.5869 22.3869 22.5865 22.9342 22.062V22.062C23.5155 21.5049 23.516 20.5758 22.9352 20.0182L17.5464 14.8435ZM8.91938 14.4654C5.50943 14.4654 2.74443 11.8156 2.74443 8.54774C2.74443 5.27987 5.50943 2.63007 8.91938 2.63007C12.3293 2.63007 15.0943 5.27987 15.0943 8.54774C15.0943 11.8156 12.3293 14.4654 8.91938 14.4654Z" fill="#288278"/>
</svg>
