<svg width="26" height="22" viewBox="0 0 26 22" fill="none" xmlns="http://www.w3.org/2000/svg">
<path d="M9.7 16.6824V18.5C9.7 20.1569 8.35685 21.5 6.7 21.5C5.04315 21.5 3.7 20.1569 3.7 18.5V12.3198C3.7 11.4122 2.96427 10.6765 2.05669 10.6765C1.46173 10.6765 1.1856 9.93821 1.63451 9.54777L10.0468 2.23116C11.7402 0.758384 14.2598 0.758382 15.9532 2.23116L24.3655 9.54776C24.8144 9.93821 24.5383 10.6765 23.9433 10.6765C23.0357 10.6765 22.3 11.4122 22.3 12.3198V18.5C22.3 20.1569 20.9569 21.5 19.3 21.5C17.6431 21.5 16.3 20.1569 16.3 18.5V16.6824C16.3 14.8598 14.8225 13.3824 13 13.3824C11.1775 13.3824 9.7 14.8598 9.7 16.6824Z" fill="white" stroke="#288278"/>
</svg>
