<svg height="512pt" viewBox="0 -61 512.00011 512" width="512pt" xmlns="http://www.w3.org/2000/svg"><path d="m366.347656 304.980469c-4.164062-.257813-7.695312 2.878906-7.957031 7.011719l-2.320313 36.570312c-.519531 8.195312-6.789062 15.023438-14.90625 16.238281l-68.210937 10.222657c-10.542969 1.570312-20.679687-6.179688-20.679687-17.300782 0-8.59375 6.425781-16.039062 14.945312-17.3125l34.609375-5.1875c11.660156-1.746094 20.667969-11.558594 21.414063-23.328125l1.394531-21.976562c1.273437-20.101563-14.722657-37.144531-34.867188-37.144531h-121.53125c-8.015625 0-15.738281 2.917968-21.75 8.21875-3.164062 3.492187-11.332031 7.222656-11.855469 17.707031-.246093 4.894531 1.453126 9.566406 4.785157 13.15625l45.816406 49.390625c10.539063 11.367187 2.125 30.054687-13.519531 29.460937-4.683594-.179687-9.015625-2.164062-12.203125-5.601562l-70.617188-76.125c-6.730469-7.253907-6.105469-18.59375 1.257813-25.085938l61.128906-53.898437c7.449219-6.566406 16.992188-31.171875 3-53.832032-4.894531-7.929687-2.996094-4.34375-32.882812-38.65625-7.601563-8.625-20.90625-9.453124-29.5-1.480468l-47.039063 43.632812c-11.449219 10.617188-29.859375 2.933594-29.859375-12.492187 0-4.941407 1.992188-9.511719 5.609375-12.867188l23.945313-22.210937c3.035156-2.816406 3.214843-7.5625.394531-10.601563-2.8125-3.03125-7.558594-3.214843-10.597657-.394531l-23.941406 22.210938c-6.617187 6.136718-10.410156 14.832031-10.410156 23.863281 0 28.082031 33.636719 43.359375 55.0625 23.488281l47.035156-43.636719c2.347656-2.175781 5.972656-1.949219 8.050782.40625 31.914062 36.269531 28.261718 31.582031 31.371093 36.617188 7.492188 12.132812 5.710938 26.925781-.347656 34.863281l-60.9375 53.734375c-13.550781 11.941406-14.914063 32.984375-2.335937 46.539063l70.617187 76.125c12.207031 13.160156 32.769531 13.984374 45.988281 1.726562 13.183594-12.230469 13.960938-32.800781 1.726563-45.988281-46.542969-51.003907-46.75-48.9375-46.621094-51.59375.121094-2.296875 2.335937-2.769531 6.796875-7.207031 3.273438-2.882813 7.472656-4.472657 11.832031-4.472657h121.53125c11.480469 0 20.628907 9.664063 19.894531 21.199219l-1.390624 21.976562c-.304688 4.765626-3.949219 8.734376-8.667969 9.441407l-34.609375 5.183593c-18.34375 2.75-31.316406 20.847657-26.832032 39.734376 3.875 16.289062 20.121094 27.082031 37.011719 24.550781l68.210938-10.222657c15.058593-2.253906 26.6875-14.921874 27.652343-30.121093l2.320313-36.574219c.261719-4.128906-2.878906-7.695312-7.011719-7.957031zm-224.984375-106.238281-.035156.027343c.011719-.007812.023437-.019531.035156-.027343zm0 0"/><path d="m397.238281 152.65625c-4.132812 3.894531-9.546875 6.035156-15.238281 6.035156-9.246094-1.335937-7.417969.957032 8.5625-81.449218.640625-3.273438 3.285156-5.808594 6.582031-6.300782l41.449219-6.210937c28.492188-4.265625 37.769531-41.164063 14.523438-58.347657-6.988282-5.167968-15.570313-7.304687-24.167969-6.015624l-69.6875 10.441406c-13.589844 2.035156-24.488281 12.464844-27.117188 25.957031l-10.328125 52.996094c-1.648437 8.453125-9.09375 14.589843-17.707031 14.589843h-123.210937c-2.75 0-5.371094-1.183593-7.1875-3.246093l-40.636719-46.085938c-12.082031-13.703125-33.140625-14.761719-46.539063-2.335937l-31.605468 29.320312c-3.035157 2.816406-3.214844 7.5625-.398438 10.601563 2.820312 3.035156 7.566406 3.214843 10.601562.394531l31.605469-29.316406c7.199219-6.679688 18.554688-6.144532 25.085938 1.257812l40.636719 46.085938c4.664062 5.289062 11.382812 8.324218 18.4375 8.324218h123.210937c15.773437 0 29.414063-11.238281 32.429687-26.71875l10.328126-53c1.417968-7.269531 7.292968-12.894531 14.617187-13.992187l69.6875-10.4375c9.601563-1.4375 18.511719 5.167969 19.945313 14.746094 1.433593 9.566406-5.183594 18.515625-14.746094 19.945312l-41.445313 6.210938c-9.566406 1.433593-17.234375 8.773437-19.085937 18.265625-14.621094 76.5-14.121094 69.085937-14.496094 78.910156-.207031 5.394531 1.738281 10.507812 5.476562 14.394531 10.097657 10.492188 29.671876 6.285157 40.699219-4.097656 33.679688-31.699219 90.128907-7.863281 89.476563 39.429687-.625 45.125-55.527344 69.863282-89.46875 37.921876-15.871094-14.933594-42.652344-14.226563-45.164063 8.367187l-2.195312 34.648437c-.273438 4.3125 3.144531 7.976563 7.492187 7.976563 3.925782 0 7.226563-3.054687 7.476563-7.027344l2.195312-34.59375c.15625-2.675781 2.289063-4.488281 4.667969-4.488281 5.691406 0 11.105469 2.144531 15.246094 6.042969 43.1875 40.640625 113.9375 9.921875 114.746094-48.640625.828124-59.785156-70.988282-91.753906-114.753907-50.558594zm0 0"/></svg>