<svg height="512pt" viewBox="0 0 512 512.016" width="512pt" xmlns="http://www.w3.org/2000/svg"><path d="m296.007812 464c13.230469 0 24-10.769531 24-24s-10.769531-24-24-24c-13.230468 0-24 10.769531-24 24s10.769532 24 24 24zm0-32c4.40625 0 8 3.585938 8 8s-3.59375 8-8 8-8-3.585938-8-8 3.59375-8 8-8zm0 0"/><path d="m216.007812 448h16v16h-16zm0 0"/><path d="m248.007812 400h16v16h-16zm0 0"/><path d="m184.007812 368c-17.648437 0-32 14.351562-32 32s14.351563 32 32 32c17.648438 0 32-14.351562 32-32s-14.351562-32-32-32zm0 48c-8.824218 0-16-7.175781-16-16s7.175782-16 16-16c8.824219 0 16 7.175781 16 16s-7.175781 16-16 16zm0 0"/><path d="m216.007812 0h16v16h-16zm0 0"/><path d="m264.007812 24h16v16h-16zm0 0"/><path d="m248.007812 64h16v16h-16zm0 0"/><path d="m232.007812 120v48c0 13.230469 10.769532 24 24 24 13.230469 0 24-10.769531 24-24v-24h-16v24c0 4.414062-3.59375 8-8 8s-8-3.585938-8-8v-48zm0 0"/><path d="m488.007812 176h-96c-13.230468 0-24 10.769531-24 24 0 10.433594 6.6875 19.328125 16 22.632812v80c-15.214843-29.578124-40.398437-53.785156-72-67.160156v-140.839844c9.3125-3.304687 16-12.199218 16-22.632812 0-13.230469-10.769531-24-24-24h-16v16h16c4.40625 0 8 3.585938 8 8s-3.59375 8-8 8h-24v16h16v144.878906c0 3.328125 2.054688 6.304688 5.167969 7.488282 49.542969 18.722656 82.832031 66.800781 82.832031 119.632812 0 7.839844-.863281 15.585938-2.273437 23.191406-48.007813-5.617187-78.542969-17.777344-110.726563-30.625-36.085937-14.398437-73.390624-29.246094-136.113281-33.628906 11.953125-35.363281 38.984375-64.609375 75.945313-78.570312 3.113281-1.183594 5.167968-4.160157 5.167968-7.488282v-144.878906h16v-16h-24c-4.40625 0-8-3.585938-8-8s3.59375-8 8-8h32v-16h-32c-13.230468 0-24 10.769531-24 24 0 10.433594 6.6875 19.328125 16 22.632812v140.832032c-32.046874 13.503906-56.96875 37.457031-72 66.734375v-79.566407c9.3125-3.304687 16-12.199218 16-22.632812 0-13.230469-10.769531-24-24-24h-96c-13.230468 0-23.9999995 10.769531-23.9999995 24 0 10.433594 6.6874995 19.328125 15.9999995 22.632812v233.367188c0 15.28125 6.039063 29.550781 17.007813 40.191406 10.542969 10.234375 24.320313 15.808594 38.960937 15.808594.582032 0 1.167969-.007812 1.742188-.023438 29.9375-.90625 54.289062-26.914062 54.289062-57.992187v-20.0625c21.710938 41.605469 63.496094 71.8125 111.503907 77.15625 5.625.625 11.199219.9375 16.746093.9375 35.476563-.007813 68.980469-12.734375 95.734376-36.671875 6.054687-5.414062 11.441406-11.414062 16.441406-17.6875.535156-.671875 1.09375-1.320312 1.621094-2 1.800781-2.34375 3.488281-4.746094 5.136718-7.183594.953125-1.402344 1.863282-2.816406 2.769532-4.25 1.390624-2.230468 2.757812-4.460937 4.023437-6.765625.703125-1.273437 1.359375-2.578125 2.023437-3.882812v20.410156c0 31.078125 24.351563 57.085937 54.28125 57.992187.582032.015626 1.167969.023438 1.742188.023438 14.648438 0 28.425781-5.574219 38.96875-15.808594 10.96875-10.640625 17.007812-24.910156 17.007812-40.191406v-233.367188c9.3125-3.304687 16-12.199218 16-22.632812 0-13.230469-10.769531-24-24-24zm-464 16h96c4.40625 0 8 3.585938 8 8s-3.59375 8-8 8h-24v16h16v92.414062c-20.625 4.386719-34.632812 12.640626-48.160156 20.699219-10.023437 5.964844-19.648437 11.648438-31.839844 15.703125v-128.816406h48v-16h-56c-4.40625 0-8-3.585938-8-8s3.59375-8 8-8zm88 261.984375c0 22.511719-17.390624 41.351563-38.769531 41.992187-10.894531.375-21.253906-3.671874-29.085937-11.265624-7.824219-7.597657-12.144532-17.800782-12.144532-28.710938v-86.398438c16.367188-4.65625 28.375-11.808593 40.03125-18.753906 12.121094-7.207031 23.671876-14.09375 39.96875-18.085937zm17.304688-67.425781c-.519531-3.695313-.871094-7.382813-1.082031-11.046875-.605469-11.023438.203125-22.015625 2.410156-32.847657 62.09375 3.878907 97.269531 17.921876 134.429687 32.761719 31.355469 12.511719 63.714844 25.429688 112.808594 31.4375-.757812 2.382813-1.6875 4.6875-2.574218 7-.550782 1.441407-1.066407 2.898438-1.664063 4.320313-.953125 2.222656-2.015625 4.382812-3.082031 6.535156-.710938 1.433594-1.414063 2.867188-2.183594 4.265625-1.214844 2.230469-2.496094 4.421875-3.832031 6.566406-.671875 1.074219-1.375 2.128907-2.070313 3.183594-1.609375 2.402344-3.234375 4.792969-4.992187 7.074219-.136719.175781-.28125.335937-.417969.511718-19.878906 25.527344-49.039062 42.953126-81.46875 48.078126-.441406.066406-.875.136718-1.3125.195312-3.007812.4375-6.042969.757812-9.097656.992188-1.632813.109374-3.28125.15625-4.917969.214843-2.203125.078125-4.394531.167969-6.609375.136719-4.105469-.082031-8.222656-.289062-12.375-.753906-56.9375-6.351563-104.023438-52.023438-111.96875-108.625zm350.695312 69.441406c0 10.910156-4.320312 21.113281-12.152343 28.710938-7.832031 7.59375-18.175781 11.65625-29.085938 11.265624-21.371093-.640624-38.761719-19.480468-38.761719-41.992187v-121.214844c16.296876 3.992188 27.847657 10.871094 39.96875 18.085938 11.65625 6.945312 23.664063 14.097656 40.03125 18.753906zm8-248h-56v16h48v128.816406c-12.191406-4.054687-21.816406-9.738281-31.839843-15.703125-13.527344-8.058593-27.535157-16.3125-48.160157-20.699219v-92.414062h16v-16h-24c-4.40625 0-8-3.585938-8-8s3.59375-8 8-8h96c4.40625 0 8 3.585938 8 8s-3.59375 8-8 8zm0 0"/><path d="m424.007812 456c0 13.230469 10.769532 24 24 24 13.230469 0 24-10.769531 24-24s-10.769531-24-24-24c-13.230468 0-24 10.769531-24 24zm32 0c0 4.414062-3.59375 8-8 8s-8-3.585938-8-8 3.59375-8 8-8 8 3.585938 8 8zm0 0"/><path d="m432.007812 72h16v16h-16zm0 0"/><path d="m472.007812 112h16v16h-16zm0 0"/><path d="m416.007812 136h16v16h-16zm0 0"/><path d="m432.007812 372c0 2.199219-1.792968 4-4 4-2.207031 0-4-1.800781-4-4v-4h-16v4c0 11.03125 8.976563 20 20 20 11.023438 0 20-8.96875 20-20v-4h-16zm0 0"/><path d="m64.007812 432c-13.230468 0-24 10.769531-24 24s10.769532 24 24 24c13.230469 0 24-10.769531 24-24s-10.769531-24-24-24zm0 32c-4.40625 0-8-3.585938-8-8s3.59375-8 8-8 8 3.585938 8 8-3.59375 8-8 8zm0 0"/><path d="m72.007812 72h16v16h-16zm0 0"/><path d="m40.007812 120h16v16h-16zm0 0"/><path d="m88.007812 144h16v16h-16zm0 0"/><path d="m64.007812 368v4c0 11.03125 8.976563 20 20 20 11.023438 0 20-8.96875 20-20v-4h-16v4c0 2.199219-1.792968 4-4 4-2.207031 0-4-1.800781-4-4v-4zm0 0"/></svg>